<?xml version="1.0" standalone="no"?><!DOCTYPE svg PUBLIC "-//W3C//DTD SVG 1.1//EN" "http://www.w3.org/Graphics/SVG/1.1/DTD/svg11.dtd"><svg t="1605516437632" class="icon" viewBox="0 0 1024 1024" version="1.1" xmlns="http://www.w3.org/2000/svg" p-id="8394" xmlns:xlink="http://www.w3.org/1999/xlink" width="200" height="200"><defs><style type="text/css"></style></defs><path d="M957.1 465.2L586.9 96.5C566.2 75.8 538.7 66 509.5 66h-0.1c-29.3 0-56.8 10-77.5 30.7L61.5 468.2c-14.2 14.3-14.2 37 0.1 51.2 7.1 7.1 16.4 10.4 25.7 10.4 9.4 0 18.7-3.7 25.9-10.8l370.4-365.3c15.9-15.9 41-10.8 51.7-0.1l370.2 366.8c14.3 14.3 37.4 12.5 51.6-1.7 14.3-14.4 14.3-39.2 0-53.5z" p-id="8395"></path><path d="M569.5 353.5c-18.2-19.9-37.5-26.7-60.1-26.7-20.2 0-39.8 4.2-60.1 26.8l-228 223.2c-20.6 20.7-35.3 45.6-35.3 74.7V912c0 20.2 13.3 36.5 33.5 36.5S253 932.2 253 912V651.5c0-9.7 10.2-18.9 17-25.7l227.7-225.7c3-3.1 8.2-3.5 10-3.5 1.8 0 6.2 0.4 9.3 3.5l225.8 224.3c6.9 6.9 12.2 16.1 12.2 25.8V912c0 20.2 13.3 36.5 33.5 36.5S822 932.2 822 912V650.3c0-29.2-9.5-54.2-30.1-74.9L569.5 353.5z" p-id="8396"></path></svg>